<svg width="33" height="32" viewBox="0 0 33 32" fill="none" xmlns="http://www.w3.org/2000/svg">
<path d="M4.9705 11.9339C5.83917 8.23067 8.73068 5.33916 12.4339 4.4705C15.1083 3.84317 17.8917 3.84317 20.5661 4.4705C24.2693 5.33916 27.1608 8.23068 28.0295 11.9339C28.6568 14.6083 28.6568 17.3917 28.0295 20.0661C27.1608 23.7693 24.2693 26.6608 20.5661 27.5295C17.8917 28.1568 15.1083 28.1568 12.4339 27.5295C8.73068 26.6608 5.83917 23.7693 4.9705 20.0661C4.34317 17.3917 4.34317 14.6083 4.9705 11.9339Z" stroke="#363853" stroke-width="1.5"/>
<path d="M11.8335 16L21.1668 16M21.1668 16L17.8335 12.6667M21.1668 16L17.8335 19.3333" stroke="#363853" stroke-width="1.5" stroke-linecap="round" stroke-linejoin="round"/>
</svg>
