<svg width="1440" height="1024" viewBox="0 0 1440 1024" fill="none" xmlns="http://www.w3.org/2000/svg">
<g clip-path="url(#clip0_2085_3832)">
<rect width="1440" height="1024" fill="#F9FAFB"/>
<mask id="mask0_2085_3832" style="mask-type:alpha" maskUnits="userSpaceOnUse" x="0" y="-3" width="1440" height="1440">
<rect width="1440" height="1440" transform="matrix(-1 0 0 1 1440 -3)" fill="url(#paint0_radial_2085_3832)"/>
</mask>
<g mask="url(#mask0_2085_3832)">
<line y1="-0.5" x2="1440" y2="-0.5" transform="matrix(0 1 1 0 1380 -3)" stroke="#E5E7EB"/>
<line y1="-0.5" x2="1440" y2="-0.5" transform="matrix(0 1 1 0 1320 -3)" stroke="#E5E7EB"/>
<line y1="-0.5" x2="1440" y2="-0.5" transform="matrix(0 1 1 0 1260 -3)" stroke="#E5E7EB"/>
<line y1="-0.5" x2="1440" y2="-0.5" transform="matrix(0 1 1 0 1200 -3)" stroke="#E5E7EB"/>
<line y1="-0.5" x2="1440" y2="-0.5" transform="matrix(0 1 1 0 1140 -3)" stroke="#E5E7EB"/>
<line y1="-0.5" x2="1440" y2="-0.5" transform="matrix(0 1 1 0 1080 -3)" stroke="#E5E7EB"/>
<line y1="-0.5" x2="1440" y2="-0.5" transform="matrix(0 1 1 0 1020 -3)" stroke="#E5E7EB"/>
<line y1="-0.5" x2="1440" y2="-0.5" transform="matrix(0 1 1 0 960 -3)" stroke="#E5E7EB"/>
<line y1="-0.5" x2="1440" y2="-0.5" transform="matrix(0 1 1 0 900 -3)" stroke="#E5E7EB"/>
<line y1="-0.5" x2="1440" y2="-0.5" transform="matrix(0 1 1 0 840 -3)" stroke="#E5E7EB"/>
<line y1="-0.5" x2="1440" y2="-0.5" transform="matrix(0 1 1 0 780 -3)" stroke="#E5E7EB"/>
<line y1="-0.5" x2="1440" y2="-0.5" transform="matrix(0 1 1 0 720 -3)" stroke="#E5E7EB"/>
<line y1="-0.5" x2="1440" y2="-0.5" transform="matrix(0 1 1 0 660 -3)" stroke="#E5E7EB"/>
<line y1="-0.5" x2="1440" y2="-0.5" transform="matrix(0 1 1 0 600 -3)" stroke="#E5E7EB"/>
<line y1="-0.5" x2="1440" y2="-0.5" transform="matrix(0 1 1 0 540 -3)" stroke="#E5E7EB"/>
<line y1="-0.5" x2="1440" y2="-0.5" transform="matrix(0 1 1 0 480 -3)" stroke="#E5E7EB"/>
<line y1="-0.5" x2="1440" y2="-0.5" transform="matrix(0 1 1 0 420 -3)" stroke="#E5E7EB"/>
<line y1="-0.5" x2="1440" y2="-0.5" transform="matrix(0 1 1 0 360 -3)" stroke="#E5E7EB"/>
<line y1="-0.5" x2="1440" y2="-0.5" transform="matrix(0 1 1 0 300 -3)" stroke="#E5E7EB"/>
<line y1="-0.5" x2="1440" y2="-0.5" transform="matrix(0 1 1 0 240 -3)" stroke="#E5E7EB"/>
<line y1="-0.5" x2="1440" y2="-0.5" transform="matrix(0 1 1 0 180 -3)" stroke="#E5E7EB"/>
<line y1="-0.5" x2="1440" y2="-0.5" transform="matrix(0 1 1 0 120 -3)" stroke="#E5E7EB"/>
<line y1="-0.5" x2="1440" y2="-0.5" transform="matrix(0 1 1 0 60 -3)" stroke="#E5E7EB"/>
<line y1="-0.5" x2="1440" y2="-0.5" transform="matrix(-1 0 0 1 1440 57)" stroke="#E5E7EB"/>
<line y1="-0.5" x2="1440" y2="-0.5" transform="matrix(-1 0 0 1 1440 117)" stroke="#E5E7EB"/>
<line y1="-0.5" x2="1440" y2="-0.5" transform="matrix(-1 0 0 1 1440 177)" stroke="#E5E7EB"/>
<line y1="-0.5" x2="1440" y2="-0.5" transform="matrix(-1 0 0 1 1440 237)" stroke="#E5E7EB"/>
<line y1="-0.5" x2="1440" y2="-0.5" transform="matrix(-1 0 0 1 1440 297)" stroke="#E5E7EB"/>
<line y1="-0.5" x2="1440" y2="-0.5" transform="matrix(-1 0 0 1 1440 357)" stroke="#E5E7EB"/>
<line y1="-0.5" x2="1440" y2="-0.5" transform="matrix(-1 0 0 1 1440 417)" stroke="#E5E7EB"/>
<line y1="-0.5" x2="1440" y2="-0.5" transform="matrix(-1 0 0 1 1440 477)" stroke="#E5E7EB"/>
<line y1="-0.5" x2="1440" y2="-0.5" transform="matrix(-1 0 0 1 1440 537)" stroke="#E5E7EB"/>
<line y1="-0.5" x2="1440" y2="-0.5" transform="matrix(-1 0 0 1 1440 597)" stroke="#E5E7EB"/>
<line y1="-0.5" x2="1440" y2="-0.5" transform="matrix(-1 0 0 1 1440 657)" stroke="#E5E7EB"/>
<line y1="-0.5" x2="1440" y2="-0.5" transform="matrix(-1 0 0 1 1440 717)" stroke="#E5E7EB"/>
<line y1="-0.5" x2="1440" y2="-0.5" transform="matrix(-1 0 0 1 1440 777)" stroke="#E5E7EB"/>
<line y1="-0.5" x2="1440" y2="-0.5" transform="matrix(-1 0 0 1 1440 837)" stroke="#E5E7EB"/>
<line y1="-0.5" x2="1440" y2="-0.5" transform="matrix(-1 0 0 1 1440 897)" stroke="#E5E7EB"/>
<line y1="-0.5" x2="1440" y2="-0.5" transform="matrix(-1 0 0 1 1440 957)" stroke="#E5E7EB"/>
<line y1="-0.5" x2="1440" y2="-0.5" transform="matrix(-1 0 0 1 1440 1017)" stroke="#E5E7EB"/>
</g>
</g>
<defs>
<radialGradient id="paint0_radial_2085_3832" cx="0" cy="0" r="1" gradientUnits="userSpaceOnUse" gradientTransform="translate(191.5 70) rotate(39.8337) scale(1959.22 1154.09)">
<stop stop-color="white"/>
<stop offset="0.457702" stop-color="white" stop-opacity="0"/>
</radialGradient>
<clipPath id="clip0_2085_3832">
<rect width="1440" height="1024" fill="white"/>
</clipPath>
</defs>
</svg>
