<svg width="24" height="24" viewBox="0 0 24 24" fill="none" xmlns="http://www.w3.org/2000/svg">
<circle cx="12" cy="12" r="9" stroke="#15202E" stroke-width="1.5"/>
<path d="M9.27557 16V14.858L12.3054 11.8878C12.5952 11.5952 12.8366 11.3352 13.0298 11.108C13.223 10.8807 13.3679 10.6605 13.4645 10.4474C13.5611 10.2344 13.6094 10.0071 13.6094 9.76562C13.6094 9.49006 13.5469 9.25426 13.4219 9.05824C13.2969 8.85938 13.125 8.70597 12.9062 8.59801C12.6875 8.49006 12.4389 8.43608 12.1605 8.43608C11.8736 8.43608 11.6222 8.49574 11.4062 8.61506C11.1903 8.73153 11.0227 8.89773 10.9034 9.11364C10.7869 9.32955 10.7287 9.58665 10.7287 9.88494H9.22443C9.22443 9.33097 9.35085 8.84943 9.60369 8.44034C9.85653 8.03125 10.2045 7.71449 10.6477 7.49006C11.0938 7.26562 11.6051 7.15341 12.1818 7.15341C12.767 7.15341 13.2813 7.26278 13.7244 7.48153C14.1676 7.70028 14.5114 8 14.7557 8.38068C15.0028 8.76136 15.1264 9.19602 15.1264 9.68466C15.1264 10.0114 15.0639 10.3324 14.9389 10.6477C14.8139 10.9631 14.5938 11.3125 14.2784 11.696C13.9659 12.0795 13.527 12.544 12.9616 13.0895L11.4574 14.6193V14.679H15.2585V16H9.27557Z" fill="black"/>
</svg>
