<svg width="24" height="24" viewBox="0 0 24 24" fill="none" xmlns="http://www.w3.org/2000/svg">
<circle cx="12" cy="12" r="9" stroke="#15202E" stroke-width="1.5"/>
<path d="M12.4077 16.1193C11.794 16.1193 11.2486 16.0142 10.7713 15.804C10.2969 15.5937 9.92188 15.3011 9.64631 14.9261C9.37074 14.5511 9.22443 14.1179 9.20739 13.6264H10.8097C10.8239 13.8622 10.902 14.0682 11.044 14.2443C11.1861 14.4176 11.375 14.5526 11.6108 14.6491C11.8466 14.7457 12.1108 14.794 12.4034 14.794C12.7159 14.794 12.9929 14.7401 13.2344 14.6321C13.4759 14.5213 13.6648 14.3679 13.8011 14.1719C13.9375 13.9759 14.0043 13.75 14.0014 13.4943C14.0043 13.2301 13.9361 12.9972 13.7969 12.7955C13.6577 12.5937 13.456 12.4361 13.1918 12.3224C12.9304 12.2088 12.6151 12.152 12.2457 12.152H11.4744V10.9332H12.2457C12.5497 10.9332 12.8153 10.8807 13.0426 10.7756C13.2727 10.6705 13.4531 10.5227 13.5838 10.3324C13.7145 10.1392 13.7784 9.91619 13.7756 9.66335C13.7784 9.41619 13.723 9.2017 13.6094 9.01989C13.4986 8.83523 13.3409 8.69176 13.1364 8.58949C12.9347 8.48722 12.6974 8.43608 12.4247 8.43608C12.1577 8.43608 11.9105 8.48437 11.6832 8.58097C11.456 8.67756 11.2727 8.81534 11.1335 8.99432C10.9943 9.17045 10.9205 9.38068 10.9119 9.625H9.39062C9.40199 9.13636 9.54261 8.70739 9.8125 8.33807C10.0852 7.96591 10.4489 7.67614 10.9034 7.46875C11.358 7.25852 11.8679 7.15341 12.4332 7.15341C13.0156 7.15341 13.5213 7.26278 13.9503 7.48153C14.3821 7.69744 14.7159 7.98864 14.9517 8.35511C15.1875 8.72159 15.3054 9.12642 15.3054 9.5696C15.3082 10.0611 15.1634 10.473 14.8707 10.8054C14.581 11.1378 14.2003 11.3551 13.7287 11.4574V11.5256C14.3423 11.6108 14.8125 11.8381 15.1392 12.2074C15.4688 12.5739 15.6321 13.0298 15.6293 13.5753C15.6293 14.0639 15.4901 14.5014 15.2116 14.8878C14.9361 15.2713 14.5554 15.5724 14.0696 15.7912C13.5866 16.0099 13.0327 16.1193 12.4077 16.1193Z" fill="black"/>
</svg>
