<svg width="25" height="24" viewBox="0 0 25 24" fill="none" xmlns="http://www.w3.org/2000/svg">
<path d="M8.5 9L12.5 9" stroke="#F9FAFB" stroke-width="1.5" stroke-linecap="round"/>
<path d="M3.38539 15.1513L4.11329 14.9705L3.38539 15.1513ZM3.38539 8.84875L4.11329 9.02949L3.38539 8.84875ZM21.6146 8.84875L22.3425 8.66801L21.6146 8.84875ZM21.6146 15.1512L20.8867 14.9705L21.6146 15.1512ZM15.6156 20.659L15.4533 19.9267H15.4533L15.6156 20.659ZM9.38443 20.659L9.54668 19.9267L9.38443 20.659ZM9.38443 3.34105L9.54668 4.07329L9.38443 3.34105ZM15.6156 3.34105L15.7778 2.60881V2.60881L15.6156 3.34105ZM8.93056 20.5584L8.7683 21.2906L8.93056 20.5584ZM16.0694 20.5584L16.2317 21.2906H16.2317L16.0694 20.5584ZM16.0694 3.44162L15.9072 4.17386V4.17386L16.0694 3.44162ZM8.93056 3.44162L8.7683 2.70938V2.70938L8.93056 3.44162ZM19.1933 14.5037L19.0588 15.2415L19.0588 15.2415L19.1933 14.5037ZM19.1347 14.493L19.2693 13.7551L19.2693 13.7551L19.1347 14.493ZM19.1347 9.50703L19.2693 10.2449L19.2693 10.2449L19.1347 9.50703ZM19.1933 9.49635L19.0588 8.75851L19.0588 8.75851L19.1933 9.49635ZM21.5 10.4873C21.8795 10.6533 22.3217 10.4802 22.4877 10.1007C22.6537 9.72124 22.4807 9.27902 22.1012 9.11302L21.5 10.4873ZM22.1012 14.887C22.4807 14.721 22.6537 14.2788 22.4877 13.8993C22.3217 13.5198 21.8795 13.3467 21.5 13.5127L22.1012 14.887ZM17.0782 12.6282L16.357 12.8342L17.0782 12.6282ZM17.0782 11.3718L17.7993 11.5778L17.0782 11.3718ZM9.09281 4.17386L9.54668 4.07329L9.22218 2.60881L8.7683 2.70938L9.09281 4.17386ZM15.4533 4.07329L15.9072 4.17386L16.2317 2.70938L15.7778 2.60881L15.4533 4.07329ZM15.9072 19.8261L15.4533 19.9267L15.7778 21.3912L16.2317 21.2906L15.9072 19.8261ZM9.54668 19.9267L9.09281 19.8261L8.7683 21.2906L9.22218 21.3912L9.54668 19.9267ZM4.11329 14.9705C3.6289 13.0198 3.6289 10.9802 4.11329 9.02949L2.6575 8.668C2.11417 10.8561 2.11417 13.1439 2.6575 15.332L4.11329 14.9705ZM20.8867 9.0295C21.3711 10.9802 21.3711 13.0198 20.8867 14.9705L22.3425 15.332C22.8858 13.1439 22.8858 10.8561 22.3425 8.66801L20.8867 9.0295ZM15.4533 19.9267C13.508 20.3578 11.492 20.3578 9.54668 19.9267L9.22218 21.3912C11.3812 21.8696 13.6188 21.8696 15.7778 21.3912L15.4533 19.9267ZM9.54668 4.07329C11.492 3.64224 13.508 3.64224 15.4533 4.07329L15.7778 2.60881C13.6188 2.1304 11.3812 2.1304 9.22218 2.60881L9.54668 4.07329ZM9.09281 19.8261C6.64627 19.284 4.71736 17.4032 4.11329 14.9705L2.6575 15.332C3.39874 18.3171 5.76576 20.6253 8.7683 21.2906L9.09281 19.8261ZM16.2317 21.2906C19.2342 20.6253 21.6013 18.3171 22.3425 15.332L20.8867 14.9705C20.2826 17.4032 18.3537 19.284 15.9072 19.8261L16.2317 21.2906ZM15.9072 4.17386C18.3537 4.71598 20.2826 6.5968 20.8867 9.0295L22.3425 8.66801C21.6013 5.68288 19.2342 3.3747 16.2317 2.70938L15.9072 4.17386ZM8.7683 2.70938C5.76576 3.3747 3.39874 5.68288 2.6575 8.668L4.11329 9.02949C4.71736 6.59679 6.64627 4.71598 9.09281 4.17386L8.7683 2.70938ZM19.3279 13.7658L19.2693 13.7551L19.0002 15.2308L19.0588 15.2415L19.3279 13.7658ZM19.2693 10.2449L19.3279 10.2342L19.0588 8.75851L19.0002 8.7692L19.2693 10.2449ZM19.3279 10.2342C20.061 10.1005 20.8173 10.1886 21.5 10.4873L22.1012 9.11302C21.1449 8.69473 20.0856 8.57129 19.0588 8.75851L19.3279 10.2342ZM19.0588 15.2415C20.0856 15.4287 21.1449 15.3053 22.1012 14.887L21.5 13.5127C20.8173 13.8114 20.061 13.8995 19.3279 13.7658L19.0588 15.2415ZM17.7993 12.4222C17.7205 12.1463 17.7205 11.8537 17.7993 11.5778L16.357 11.1658C16.2013 11.711 16.2013 12.289 16.357 12.8342L17.7993 12.4222ZM19.0002 8.7692C17.7349 8.99991 16.7103 9.92901 16.357 11.1658L17.7993 11.5778C17.9958 10.8898 18.5657 10.3732 19.2693 10.2449L19.0002 8.7692ZM19.2693 13.7551C18.5657 13.6268 17.9958 13.1102 17.7993 12.4222L16.357 12.8342C16.7103 14.071 17.7349 15.0001 19.0002 15.2308L19.2693 13.7551Z" fill="#F9FAFB"/>
</svg>
